<svg xmlns="http://www.w3.org/2000/svg" width="512" height="512" fill="none" viewBox="0 0 512 512">
  <g>
    <path fill="#34435A" d="M0 0h512v512H0z"/>
    <path fill="url(#b)" d="M0 0h512v512H0z"/>
    <path fill="#C2E0FF" d="M325.71 310.534 443 251.967 257.107 566l60.304-188.532-123.929 63.03c17.151-42.391 65.838-125.501 43.707-143.908-25.449-23.985-68.603 24.542-116.736 18.407C72.32 308.861 69 251.967 69 251.967c28.77 14.502 77.456 26.774 108.991 5.02 33.195-22.869 1.383-71.397 28.769-108.211 19.918-26.773 50.347-22.311 50.347-22.311-1.66-36.256-29.323-46.854-29.323-46.854 35.962-5.578 57.538 15.06 57.538 15.06 6.64-17.849-15.491-32.91-15.491-32.91 37.068-6.693 49.793 32.91 49.793 32.91 8.299-13.944 0-30.678 0-30.678 34.302 18.965 66.944 83.668 61.965 142.235-4.98 58.568-55.879 104.306-55.879 104.306Z"/>
  </g>
  <defs>
    <radialGradient id="b" cx="0" cy="0" r="1" gradientTransform="rotate(90 0 256) scale(256)" gradientUnits="userSpaceOnUse">
      <stop offset=".245" stop-opacity="0"/>
      <stop offset="1" stop-opacity=".15"/>
    </radialGradient>
  </defs>
</svg>
